<svg width="1280" height="420" viewBox="0 0 1280 420" fill="none" xmlns="http://www.w3.org/2000/svg" role="img" aria-labelledby="title desc">
  <title id="title">SharpMTKClient banner</title>
  <desc id="desc">A dark blue and green banner for SharpMTKClient, a C# source code project for MediaTek MTK protocol development on Windows.</desc>
  <defs>
    <linearGradient id="background" x1="0" y1="0" x2="1280" y2="420" gradientUnits="userSpaceOnUse">
      <stop offset="0" stop-color="#050816"/>
      <stop offset="0.42" stop-color="#0F172A"/>
      <stop offset="1" stop-color="#020617"/>
    </linearGradient>
    <radialGradient id="blueGlow" cx="0" cy="0" r="1" gradientUnits="userSpaceOnUse" gradientTransform="translate(880 110) rotate(146) scale(520 260)">
      <stop stop-color="#38BDF8" stop-opacity="0.42"/>
      <stop offset="1" stop-color="#38BDF8" stop-opacity="0"/>
    </radialGradient>
    <radialGradient id="greenGlow" cx="0" cy="0" r="1" gradientUnits="userSpaceOnUse" gradientTransform="translate(1080 330) rotate(180) scale(420 190)">
      <stop stop-color="#84CC16" stop-opacity="0.34"/>
      <stop offset="1" stop-color="#84CC16" stop-opacity="0"/>
    </radialGradient>
    <filter id="softShadow" x="-20%" y="-20%" width="140%" height="140%" color-interpolation-filters="sRGB">
      <feDropShadow dx="0" dy="18" stdDeviation="24" flood-color="#000000" flood-opacity="0.42"/>
    </filter>
    <style>
      .font { font-family: Inter, Segoe UI, Roboto, Arial, sans-serif; }
      .eyebrow { font-size: 22px; font-weight: 700; letter-spacing: 4px; fill: #7DD3FC; }
      .title { font-size: 82px; font-weight: 850; letter-spacing: -2.8px; fill: #F8FAFC; }
      .subtitle { font-size: 28px; font-weight: 500; fill: #CBD5E1; }
      .chip { font-size: 19px; font-weight: 700; fill: #E2E8F0; }
      .mono { font-family: Consolas, Menlo, Monaco, monospace; font-size: 18px; font-weight: 700; fill: #BAE6FD; }
      .muted { font-size: 18px; font-weight: 600; fill: #94A3B8; }
    </style>
  </defs>

  <rect width="1280" height="420" rx="34" fill="url(#background)"/>
  <rect width="1280" height="420" rx="34" fill="url(#blueGlow)"/>
  <rect width="1280" height="420" rx="34" fill="url(#greenGlow)"/>

  <g opacity="0.16">
    <path d="M48 336H508" stroke="#38BDF8" stroke-width="1"/>
    <path d="M780 70H1210" stroke="#38BDF8" stroke-width="1"/>
    <path d="M730 335H1196" stroke="#84CC16" stroke-width="1"/>
    <circle cx="1018" cy="205" r="154" stroke="#38BDF8" stroke-width="1.4"/>
    <circle cx="1018" cy="205" r="104" stroke="#84CC16" stroke-width="1.2"/>
    <circle cx="1018" cy="205" r="54" stroke="#A78BFA" stroke-width="1"/>
    <path d="M864 205H1172M1018 51V359" stroke="#64748B" stroke-width="1"/>
    <path d="M909 96L1127 314M1127 96L909 314" stroke="#334155" stroke-width="1"/>
  </g>

  <g filter="url(#softShadow)">
    <rect x="54" y="54" width="1168" height="312" rx="30" fill="#0B1220" fill-opacity="0.62" stroke="#1E293B"/>
  </g>

  <g transform="translate(88 105)">
    <text class="font eyebrow" x="0" y="0">MEDIATEK PROTOCOL SOURCE CODE</text>
    <text class="font title" x="0" y="86">SharpMTKClient</text>
    <text class="font subtitle" x="2" y="132">Professional C# / .NET source code for MTK service software on Windows</text>
  </g>

  <g transform="translate(90 287)">
    <rect width="104" height="42" rx="21" fill="#0F172A" stroke="#334155"/>
    <text class="font chip" x="28" y="27">BROM</text>

    <rect x="118" width="136" height="42" rx="21" fill="#0F172A" stroke="#334155"/>
    <text class="font chip" x="143" y="27">Preloader</text>

    <rect x="268" width="86" height="42" rx="21" fill="#0F172A" stroke="#334155"/>
    <text class="font chip" x="296" y="27">DA</text>

    <rect x="368" width="104" height="42" rx="21" fill="#0F172A" stroke="#334155"/>
    <text class="font chip" x="394" y="27">Flash</text>

    <rect x="486" width="132" height="42" rx="21" fill="#0F172A" stroke="#334155"/>
    <text class="font chip" x="511" y="27">Partitions</text>

    <rect x="632" width="94" height="42" rx="21" fill="#0F172A" stroke="#334155"/>
    <text class="font chip" x="662" y="27">IMEI</text>

    <rect x="740" width="98" height="42" rx="21" fill="#0F172A" stroke="#334155"/>
    <text class="font chip" x="768" y="27">RPMB</text>

    <rect x="852" width="98" height="42" rx="21" fill="#0F172A" stroke="#334155"/>
    <text class="font chip" x="879" y="27">Patch</text>
  </g>

  <g transform="translate(850 118)">
    <rect width="280" height="126" rx="24" fill="#020617" fill-opacity="0.72" stroke="#1E293B"/>
    <text class="font muted" x="28" y="38">protocol families</text>
    <text class="font mono" x="28" y="74">LEGACY | XFLASH | XML</text>
    <text class="font muted" x="28" y="106">Windows native workflow</text>
  </g>
</svg>
